# xmcd
#
# Track frame offsets:
#	150
#	19892
#	33995
#	49759
#	70540
#	83310
#	98536
#	116061
#	132604
#	141065
#	155911
#	172693
#
# Disc length: 2518 seconds
#
# Revision: 1
# Processed by: cddbd v1.5.2PL0 Copyright (c) Steve Scherf et al.
# Submitted via: audiograbber 1.83.01
#
DISCID=9209d40c
DTITLE=Frank Fairfield - Out On The Open West
DYEAR=2011
DGENRE=folk
TTITLE0=Frazier Blues
TTITLE1=Kings County Breakdown
TTITLE2=Someday You'll Be Free
TTITLE3=Haste to the Wedding/The Darling True Love
TTITLE4=Turkey in the Straw/Arkansas Traveler
TTITLE5=But That's Alright
TTITLE6=Poor Old Lance
TTITLE7=Up the Road Somewhere Blues
TTITLE8=The Winding Spring
TTITLE9=Out on the Open West
TTITLE10=Ruthie
TTITLE11=Texas Farewell
EXTD=
EXTT0=
EXTT1=
EXTT2=
EXTT3=
EXTT4=
EXTT5=
EXTT6=
EXTT7=
EXTT8=
EXTT9=
EXTT10=
EXTT11=
PLAYORDER=
